<mxfile host="app.diagrams.net" modified="2022-08-21T15:07:10.635Z" agent="5.0 (Windows NT 10.0; Win64; x64) AppleWebKit/537.36 (KHTML, like Gecko) Chrome/104.0.0.0 Safari/537.36" etag="TaD8WY5FglIkBPWQ6EfJ" version="20.2.5" type="github">
  <diagram id="pEERDK0RMO_2BzRdR04u" name="第 1 页">
    <mxGraphModel dx="1422" dy="754" grid="1" gridSize="10" guides="1" tooltips="1" connect="1" arrows="1" fold="1" page="1" pageScale="1" pageWidth="1169" pageHeight="1654" math="0" shadow="0">
      <root>
        <mxCell id="0" />
        <mxCell id="1" parent="0" />
        <mxCell id="RdQaipgJ-cZydfEx716X-5" value="退货申请单" style="swimlane;childLayout=stackLayout;resizeParent=1;resizeParentMax=0;startSize=20;" vertex="1" parent="1">
          <mxGeometry x="400" y="80" width="360" height="1440" as="geometry" />
        </mxCell>
        <mxCell id="RdQaipgJ-cZydfEx716X-6" value="新增" style="swimlane;startSize=20;" vertex="1" parent="RdQaipgJ-cZydfEx716X-5">
          <mxGeometry y="20" width="120" height="1420" as="geometry" />
        </mxCell>
        <mxCell id="RdQaipgJ-cZydfEx716X-7" value="提交" style="swimlane;startSize=20;" vertex="1" parent="RdQaipgJ-cZydfEx716X-5">
          <mxGeometry x="120" y="20" width="120" height="1420" as="geometry" />
        </mxCell>
        <mxCell id="RdQaipgJ-cZydfEx716X-9" value="审核" style="swimlane;startSize=20;" vertex="1" parent="RdQaipgJ-cZydfEx716X-5">
          <mxGeometry x="240" y="20" width="120" height="1420" as="geometry" />
        </mxCell>
        <mxCell id="RdQaipgJ-cZydfEx716X-10" value="退货入库单" style="swimlane;childLayout=stackLayout;resizeParent=1;resizeParentMax=0;startSize=20;" vertex="1" parent="1">
          <mxGeometry x="840" y="80" width="240" height="1440" as="geometry" />
        </mxCell>
        <mxCell id="RdQaipgJ-cZydfEx716X-12" value="入库确认" style="swimlane;startSize=20;" vertex="1" parent="RdQaipgJ-cZydfEx716X-10">
          <mxGeometry y="20" width="120" height="1420" as="geometry" />
        </mxCell>
        <mxCell id="RdQaipgJ-cZydfEx716X-13" value="记账" style="swimlane;startSize=20;" vertex="1" parent="RdQaipgJ-cZydfEx716X-10">
          <mxGeometry x="120" y="20" width="120" height="1420" as="geometry" />
        </mxCell>
        <mxCell id="RdQaipgJ-cZydfEx716X-14" value="退货草稿单" style="swimlane;childLayout=stackLayout;resizeParent=1;resizeParentMax=0;startSize=20;" vertex="1" parent="1">
          <mxGeometry x="80" y="80" width="260" height="1440" as="geometry" />
        </mxCell>
        <mxCell id="RdQaipgJ-cZydfEx716X-15" value="新增" style="swimlane;startSize=20;" vertex="1" parent="RdQaipgJ-cZydfEx716X-14">
          <mxGeometry y="20" width="130" height="1420" as="geometry" />
        </mxCell>
        <mxCell id="RdQaipgJ-cZydfEx716X-41" style="edgeStyle=orthogonalEdgeStyle;rounded=0;orthogonalLoop=1;jettySize=auto;html=1;exitX=0.5;exitY=1;exitDx=0;exitDy=0;exitPerimeter=0;entryX=0.45;entryY=-0.067;entryDx=0;entryDy=0;entryPerimeter=0;fontSize=12;" edge="1" parent="RdQaipgJ-cZydfEx716X-15" source="RdQaipgJ-cZydfEx716X-29" target="RdQaipgJ-cZydfEx716X-40">
          <mxGeometry relative="1" as="geometry" />
        </mxCell>
        <mxCell id="RdQaipgJ-cZydfEx716X-29" value="批量退货页面新增" style="strokeWidth=2;html=1;shape=mxgraph.flowchart.start_1;whiteSpace=wrap;fillColor=#d5e8d4;strokeColor=#82b366;" vertex="1" parent="RdQaipgJ-cZydfEx716X-15">
          <mxGeometry x="10" y="40" width="100" height="60" as="geometry" />
        </mxCell>
        <mxCell id="RdQaipgJ-cZydfEx716X-43" style="edgeStyle=orthogonalEdgeStyle;rounded=0;orthogonalLoop=1;jettySize=auto;html=1;exitX=0.5;exitY=1;exitDx=0;exitDy=0;entryX=0.5;entryY=0;entryDx=0;entryDy=0;fontSize=12;" edge="1" parent="RdQaipgJ-cZydfEx716X-15" source="RdQaipgJ-cZydfEx716X-40" target="RdQaipgJ-cZydfEx716X-42">
          <mxGeometry relative="1" as="geometry" />
        </mxCell>
        <mxCell id="RdQaipgJ-cZydfEx716X-40" value="校验发货机构的写权限" style="rounded=0;whiteSpace=wrap;html=1;fontSize=12;align=center;" vertex="1" parent="RdQaipgJ-cZydfEx716X-15">
          <mxGeometry x="5" y="130" width="120" height="60" as="geometry" />
        </mxCell>
        <mxCell id="RdQaipgJ-cZydfEx716X-45" style="edgeStyle=orthogonalEdgeStyle;rounded=0;orthogonalLoop=1;jettySize=auto;html=1;exitX=0.5;exitY=1;exitDx=0;exitDy=0;entryX=0.5;entryY=0;entryDx=0;entryDy=0;fontSize=12;" edge="1" parent="RdQaipgJ-cZydfEx716X-15" source="RdQaipgJ-cZydfEx716X-42" target="RdQaipgJ-cZydfEx716X-44">
          <mxGeometry relative="1" as="geometry" />
        </mxCell>
        <mxCell id="RdQaipgJ-cZydfEx716X-42" value="商品小数控制:&lt;br&gt;校验退货数量是否满足小数控制" style="rounded=0;whiteSpace=wrap;html=1;fontSize=12;align=center;" vertex="1" parent="RdQaipgJ-cZydfEx716X-15">
          <mxGeometry x="5" y="210" width="120" height="60" as="geometry" />
        </mxCell>
        <mxCell id="RdQaipgJ-cZydfEx716X-49" style="edgeStyle=orthogonalEdgeStyle;rounded=0;orthogonalLoop=1;jettySize=auto;html=1;exitX=0.5;exitY=1;exitDx=0;exitDy=0;fontSize=12;" edge="1" parent="RdQaipgJ-cZydfEx716X-15" source="RdQaipgJ-cZydfEx716X-44" target="RdQaipgJ-cZydfEx716X-48">
          <mxGeometry relative="1" as="geometry" />
        </mxCell>
        <mxCell id="RdQaipgJ-cZydfEx716X-44" value="赠品属性:&lt;br&gt;赠品允许价格为0" style="rounded=0;whiteSpace=wrap;html=1;fontSize=12;align=center;" vertex="1" parent="RdQaipgJ-cZydfEx716X-15">
          <mxGeometry x="5" y="290" width="120" height="60" as="geometry" />
        </mxCell>
        <mxCell id="RdQaipgJ-cZydfEx716X-51" style="edgeStyle=orthogonalEdgeStyle;rounded=0;orthogonalLoop=1;jettySize=auto;html=1;exitX=0.5;exitY=1;exitDx=0;exitDy=0;entryX=0.5;entryY=0;entryDx=0;entryDy=0;fontSize=12;" edge="1" parent="RdQaipgJ-cZydfEx716X-15" source="RdQaipgJ-cZydfEx716X-48" target="RdQaipgJ-cZydfEx716X-50">
          <mxGeometry relative="1" as="geometry" />
        </mxCell>
        <mxCell id="RdQaipgJ-cZydfEx716X-48" value="查询基础商品信息:&lt;br&gt;1.商品信息赋值&lt;br&gt;2.查询退货价格需要销售单位信息" style="rounded=0;whiteSpace=wrap;html=1;fontSize=12;align=left;" vertex="1" parent="RdQaipgJ-cZydfEx716X-15">
          <mxGeometry x="5" y="370" width="120" height="60" as="geometry" />
        </mxCell>
        <mxCell id="RdQaipgJ-cZydfEx716X-55" style="edgeStyle=orthogonalEdgeStyle;rounded=0;orthogonalLoop=1;jettySize=auto;html=1;exitX=0.5;exitY=1;exitDx=0;exitDy=0;entryX=0.5;entryY=0;entryDx=0;entryDy=0;fontSize=12;" edge="1" parent="RdQaipgJ-cZydfEx716X-15" source="RdQaipgJ-cZydfEx716X-50" target="RdQaipgJ-cZydfEx716X-52">
          <mxGeometry relative="1" as="geometry" />
        </mxCell>
        <mxCell id="RdQaipgJ-cZydfEx716X-50" value="查询客户+发货机构+商品的退货价格" style="rounded=0;whiteSpace=wrap;html=1;fontSize=12;" vertex="1" parent="RdQaipgJ-cZydfEx716X-15">
          <mxGeometry x="5" y="447" width="120" height="60" as="geometry" />
        </mxCell>
        <mxCell id="RdQaipgJ-cZydfEx716X-57" style="edgeStyle=orthogonalEdgeStyle;rounded=0;orthogonalLoop=1;jettySize=auto;html=1;exitX=0.5;exitY=1;exitDx=0;exitDy=0;fontSize=12;" edge="1" parent="RdQaipgJ-cZydfEx716X-15" source="RdQaipgJ-cZydfEx716X-52" target="RdQaipgJ-cZydfEx716X-56">
          <mxGeometry relative="1" as="geometry" />
        </mxCell>
        <mxCell id="RdQaipgJ-cZydfEx716X-52" value="查询门店+商品可用库存量:&lt;br&gt;1.可用库存量校验&lt;br&gt;2.计算最大建议退货量" style="rounded=0;whiteSpace=wrap;html=1;fontSize=12;align=left;" vertex="1" parent="RdQaipgJ-cZydfEx716X-15">
          <mxGeometry x="5" y="528" width="120" height="60" as="geometry" />
        </mxCell>
        <mxCell id="RdQaipgJ-cZydfEx716X-59" value="" style="edgeStyle=orthogonalEdgeStyle;rounded=0;orthogonalLoop=1;jettySize=auto;html=1;fontSize=12;" edge="1" parent="RdQaipgJ-cZydfEx716X-15" source="RdQaipgJ-cZydfEx716X-56" target="RdQaipgJ-cZydfEx716X-58">
          <mxGeometry relative="1" as="geometry" />
        </mxCell>
        <mxCell id="RdQaipgJ-cZydfEx716X-56" value="客户信息:&lt;br&gt;获取默认退货入库库房" style="rounded=0;whiteSpace=wrap;html=1;fontSize=12;" vertex="1" parent="RdQaipgJ-cZydfEx716X-15">
          <mxGeometry x="5" y="620" width="120" height="60" as="geometry" />
        </mxCell>
        <mxCell id="RdQaipgJ-cZydfEx716X-58" value="&lt;div style=&quot;text-align: left;&quot;&gt;&lt;span style=&quot;background-color: initial;&quot;&gt;状态:未提交&lt;/span&gt;&lt;/div&gt;&lt;div style=&quot;text-align: left;&quot;&gt;&lt;span style=&quot;background-color: initial;&quot;&gt;实物退货:页面选择&lt;/span&gt;&lt;/div&gt;" style="whiteSpace=wrap;html=1;rounded=0;fillColor=#ffe6cc;strokeColor=#d79b00;" vertex="1" parent="RdQaipgJ-cZydfEx716X-15">
          <mxGeometry x="5" y="700" width="120" height="60" as="geometry" />
        </mxCell>
        <mxCell id="RdQaipgJ-cZydfEx716X-16" value="提交" style="swimlane;startSize=20;" vertex="1" parent="RdQaipgJ-cZydfEx716X-14">
          <mxGeometry x="130" y="20" width="130" height="1420" as="geometry" />
        </mxCell>
        <mxCell id="RdQaipgJ-cZydfEx716X-61" value="" style="edgeStyle=orthogonalEdgeStyle;rounded=0;orthogonalLoop=1;jettySize=auto;html=1;fontSize=12;" edge="1" parent="RdQaipgJ-cZydfEx716X-16" source="RdQaipgJ-cZydfEx716X-31" target="RdQaipgJ-cZydfEx716X-60">
          <mxGeometry relative="1" as="geometry" />
        </mxCell>
        <mxCell id="RdQaipgJ-cZydfEx716X-31" value="&lt;font style=&quot;font-size: 12px;&quot;&gt;单条提交&lt;/font&gt;" style="rounded=0;whiteSpace=wrap;html=1;fontSize=25;fillColor=#d5e8d4;strokeColor=#82b366;" vertex="1" parent="RdQaipgJ-cZydfEx716X-16">
          <mxGeometry x="5" y="40" width="120" height="60" as="geometry" />
        </mxCell>
        <mxCell id="RdQaipgJ-cZydfEx716X-63" value="" style="edgeStyle=orthogonalEdgeStyle;rounded=0;orthogonalLoop=1;jettySize=auto;html=1;fontSize=12;" edge="1" parent="RdQaipgJ-cZydfEx716X-16" source="RdQaipgJ-cZydfEx716X-60" target="RdQaipgJ-cZydfEx716X-62">
          <mxGeometry relative="1" as="geometry" />
        </mxCell>
        <mxCell id="RdQaipgJ-cZydfEx716X-60" value="&lt;font style=&quot;font-size: 12px; line-height: 1.2;&quot;&gt;根据机构查询配送中心/结算机构/客户结算机构信息&lt;/font&gt;" style="whiteSpace=wrap;html=1;fontSize=25;rounded=0;" vertex="1" parent="RdQaipgJ-cZydfEx716X-16">
          <mxGeometry x="5" y="130" width="120" height="60" as="geometry" />
        </mxCell>
        <mxCell id="RdQaipgJ-cZydfEx716X-65" value="" style="edgeStyle=orthogonalEdgeStyle;rounded=0;orthogonalLoop=1;jettySize=auto;html=1;fontSize=12;" edge="1" parent="RdQaipgJ-cZydfEx716X-16" source="RdQaipgJ-cZydfEx716X-62" target="RdQaipgJ-cZydfEx716X-64">
          <mxGeometry relative="1" as="geometry" />
        </mxCell>
        <mxCell id="RdQaipgJ-cZydfEx716X-62" value="&lt;font style=&quot;font-size: 12px;&quot;&gt;查询截单波次号&lt;/font&gt;" style="whiteSpace=wrap;html=1;fontSize=25;rounded=0;" vertex="1" parent="RdQaipgJ-cZydfEx716X-16">
          <mxGeometry x="5" y="210" width="120" height="60" as="geometry" />
        </mxCell>
        <mxCell id="RdQaipgJ-cZydfEx716X-67" value="" style="edgeStyle=orthogonalEdgeStyle;rounded=0;orthogonalLoop=1;jettySize=auto;html=1;fontSize=12;" edge="1" parent="RdQaipgJ-cZydfEx716X-16" source="RdQaipgJ-cZydfEx716X-64" target="RdQaipgJ-cZydfEx716X-66">
          <mxGeometry relative="1" as="geometry" />
        </mxCell>
        <mxCell id="RdQaipgJ-cZydfEx716X-64" value="&lt;font style=&quot;font-size: 12px;&quot;&gt;查询客户退货出库库房&lt;/font&gt;" style="whiteSpace=wrap;html=1;fontSize=25;rounded=0;" vertex="1" parent="RdQaipgJ-cZydfEx716X-16">
          <mxGeometry x="5" y="290" width="120" height="60" as="geometry" />
        </mxCell>
        <mxCell id="RdQaipgJ-cZydfEx716X-66" value="&lt;font style=&quot;font-size: 12px;&quot;&gt;查询默认发货机构&lt;/font&gt;" style="whiteSpace=wrap;html=1;fontSize=25;rounded=0;" vertex="1" parent="RdQaipgJ-cZydfEx716X-16">
          <mxGeometry x="5" y="370" width="120" height="60" as="geometry" />
        </mxCell>
        <mxCell id="RdQaipgJ-cZydfEx716X-33" style="edgeStyle=orthogonalEdgeStyle;rounded=0;orthogonalLoop=1;jettySize=auto;html=1;exitX=1;exitY=0.5;exitDx=0;exitDy=0;exitPerimeter=0;entryX=0;entryY=0.5;entryDx=0;entryDy=0;fontSize=25;" edge="1" parent="RdQaipgJ-cZydfEx716X-14" source="RdQaipgJ-cZydfEx716X-29" target="RdQaipgJ-cZydfEx716X-31">
          <mxGeometry relative="1" as="geometry" />
        </mxCell>
        <mxCell id="RdQaipgJ-cZydfEx716X-24" value="&lt;font style=&quot;font-size: 25px;&quot;&gt;配送退货&lt;/font&gt;" style="text;html=1;strokeColor=none;fillColor=none;align=center;verticalAlign=middle;whiteSpace=wrap;rounded=0;" vertex="1" parent="1">
          <mxGeometry x="70" y="20" width="130" height="30" as="geometry" />
        </mxCell>
      </root>
    </mxGraphModel>
  </diagram>
</mxfile>
